<svg width="56" height="45" viewBox="0 0 56 45" fill="none" xmlns="http://www.w3.org/2000/svg">
    <g filter="url(#filter0_d_16_4)">
        <path
            d="M31.5902 5.62818L25.0746 12.0775C25.0746 12.0775 26.9254 13.4243 27.1252 14.713C27.3156 15.9415 26.9496 16.8193 26.0999 17.7268C24.9729 18.9305 23.6419 18.8692 21.9987 18.7314C20.2792 18.5871 19.2782 17.6923 18.0308 16.5C18.0308 16.5 8.08473 17.4181 5 22C3.87489 23.6712 3.32762 25.1336 3.03082 26.7682C2.75046 28.3122 2.68599 29.2556 3.03082 30.7866C3.53624 33.0305 4.41741 34.2305 6.10669 35.8096C8.7181 38.2506 13.0308 39.5 13.0308 39.5L17.0308 40.5L21.5308 41C21.5308 41 25.0746 41.8372 30.201 40.3303C33.526 39.3529 35.4294 38.098 37.5583 36.6945C38.7118 35.934 39.9315 35.1299 41.4793 34.3027C41.4793 34.3027 49.0485 29.9338 51.2195 25.2613C53.3985 20.5716 53.6497 16.8881 51.7652 12.0775C50.6464 9.22115 49.6156 7.59732 47.2258 5.62818C44.172 3.11183 41.5716 1.47282 37.6427 2.15549C34.9457 2.62411 31.5902 5.62818 31.5902 5.62818Z"
            fill="#F3F4C7" />
        <path
            d="M25.0746 12.0775L18.0308 16.5C19.2782 17.6923 20.2792 18.5871 21.9987 18.7314C23.6419 18.8692 24.9729 18.9305 26.0999 17.7268C26.9496 16.8193 27.3156 15.9415 27.1252 14.713C26.9254 13.4243 25.0746 12.0775 25.0746 12.0775Z"
            fill="#F3F4C7" />
        <path
            d="M25.0746 12.0775L18.0308 16.5C19.2782 17.6923 20.2792 18.5871 21.9987 18.7314C23.6419 18.8692 24.9729 18.9305 26.0999 17.7268C26.9496 16.8193 27.3156 15.9415 27.1252 14.713C26.9254 13.4243 25.0746 12.0775 25.0746 12.0775Z"
            fill="black" fill-opacity="0.2" />
        <path
            d="M18.0308 16.5L25.0746 12.0775M18.0308 16.5C19.2782 17.6923 20.2792 18.5871 21.9987 18.7314C23.6419 18.8692 24.9729 18.9305 26.0999 17.7268C26.9496 16.8193 27.3156 15.9415 27.1252 14.713C26.9254 13.4243 25.0746 12.0775 25.0746 12.0775M18.0308 16.5C18.0308 16.5 8.08473 17.4181 5 22C3.87489 23.6712 3.32762 25.1336 3.03082 26.7682C2.75046 28.3122 2.68599 29.2556 3.03082 30.7866C3.53624 33.0305 4.41741 34.2305 6.10669 35.8096C8.7181 38.2506 13.0308 39.5 13.0308 39.5L17.0308 40.5L21.5308 41C21.5308 41 25.0746 41.8372 30.201 40.3303C33.526 39.3529 35.4294 38.098 37.5583 36.6945C38.7118 35.934 39.9315 35.1299 41.4793 34.3027C41.4793 34.3027 49.0485 29.9338 51.2195 25.2613C53.3985 20.5716 53.6497 16.8881 51.7652 12.0775C50.6464 9.22115 49.6156 7.59732 47.2258 5.62818C44.172 3.11183 41.5716 1.47282 37.6427 2.15549C34.9457 2.62411 31.5902 5.62818 31.5902 5.62818L25.0746 12.0775"
            stroke="#262626" stroke-width="0.2" />
    </g>
    <defs>
        <filter id="filter0_d_16_4" x="0.695755" y="0.899994" width="54.4351" height="43.4319"
            filterUnits="userSpaceOnUse" color-interpolation-filters="sRGB">
            <feFlood flood-opacity="0" result="BackgroundImageFix" />
            <feColorMatrix in="SourceAlpha" type="matrix"
                values="0 0 0 0 0 0 0 0 0 0 0 0 0 0 0 0 0 0 127 0" result="hardAlpha" />
            <feOffset dy="1" />
            <feGaussianBlur stdDeviation="1" />
            <feComposite in2="hardAlpha" operator="out" />
            <feColorMatrix type="matrix"
                values="0 0 0 0 0.348819 0 0 0 0 0.350488 0 0 0 0 0.266962 0 0 0 0.4 0" />
            <feBlend mode="normal" in2="BackgroundImageFix" result="effect1_dropShadow_16_4" />
            <feBlend mode="normal" in="SourceGraphic" in2="effect1_dropShadow_16_4" result="shape" />
        </filter>
    </defs>
</svg>