<svg xmlns="http://www.w3.org/2000/svg" shape-rendering="geometricPrecision" text-rendering="geometricPrecision" viewBox="0 0 38 38">
  <path fill="#6fd886" fill-rule="evenodd" d="M17.7 8.2c-2.9.2-5.2.7-6.6 1.4-.7.4-1 .7-1.2 1.7l-.1.7-1-.6c-.6-.5-1-.6-1.4-.6-.7 0-1 .2-1.3.7-.2.6-.2 1.2 0 2a11 11 0 0 0 2.8 3.9l.7.6v1l-.2 1.3a62.6 62.6 0 0 0 0 6.4c.2 1.4.4 2.3.7 2.4l2.6.2h.6l.2.5c.3.7.8 1.9 1.1 2.1 1 1 2.1.3 2.7-1.9l.3-.7h1l3.8-.3h.4v.3c.3.7.6 1.7 1 2.1.6 1.1 1.6 1.2 2.3.2.3-.5.5-1 .7-2.3.1-1 .1-1 .4-1a23 23 0 0 0 2.7-.8c.5-.2 1-.6 1.2-1 .2-.5.2-.8-.6-6.3l-.4-2.7.2-.3c1.4-1.6 1.9-2.4 2.4-3.5.2-.5.2-.7.2-1.3 0-.7-.2-1.1-.6-1.5-.6-.4-1.6-.1-2.3.7l-.3.2-.2-1.1c0-1-.1-1.1-.3-1.3-.4-.4-3.6-1-6.1-1.1h-5.4Z" clip-rule="evenodd"/>
  <path fill="#6fd886" fill-rule="evenodd" d="M11 5.6c-.5.4-.2 1.5.3 2 .3.3.9.2 1.3.1.5-.1.5-.4.5-.8s-.4-.8-1-1.2c-.8-.3-1-.4-1.2-.1Z" clip-rule="evenodd"/>
  <path fill="#6fd886" fill-rule="evenodd" d="M24.9 5.2c-.5.3-1 1-1 1.3 0 .2.3 1.2 1 1.2 0 0 1.3-.3 1.3-1.7 0-.4-.2-.7-.4-1l-.3-.1-.6.3Z" clip-rule="evenodd"/>
  <path fill="#fff" fill-rule="evenodd" d="m14.3 15-.5.7c-.2.5-.2.9 0 1 .2 0 .3-.1.5-.6.4-.7 1.3-.6 1.7.2.3.4.4.4.6.2v-.4c-.1-.4-.5-.9-.8-1-.3-.3-1-.2-1.5 0Z" clip-rule="evenodd"/>
  <path fill="#fff" fill-rule="evenodd" d="M22.4 15a1 1 0 0 0-.5.6c-.3.5-.3.8 0 .9l.5-.5c.4-.6 1.2-.6 1.7.1.3.4.3.5.5.3.1-.1.1-.2 0-.4a2 2 0 0 0-.7-1 2 2 0 0 0-1.5 0Z" clip-rule="evenodd"/>
  <path fill="#fff" fill-rule="evenodd" d="m16.6 19.3.7 1c.7.8 2.3 1 3.4.6.7-.3 1.5-1.7 1.5-1.7h-5.6Z" clip-rule="evenodd"/>
</svg>